<svg width="18" height="18" viewBox="0 0 18 18" fill="none" xmlns="http://www.w3.org/2000/svg">
<path d="M7.71745 2.895L1.36495 13.5C1.23398 13.7268 1.16468 13.984 1.16395 14.2459C1.16321 14.5078 1.23107 14.7653 1.36077 14.9929C1.49048 15.2204 1.6775 15.4101 1.90324 15.5429C2.12897 15.6757 2.38555 15.7471 2.64745 15.75H15.3525C15.6144 15.7471 15.8709 15.6757 16.0967 15.5429C16.3224 15.4101 16.5094 15.2204 16.6391 14.9929C16.7688 14.7653 16.8367 14.5078 16.836 14.2459C16.8352 13.984 16.7659 13.7268 16.635 13.5L10.2825 2.895C10.1488 2.67458 9.9605 2.49234 9.73585 2.36586C9.51121 2.23939 9.25776 2.17294 8.99995 2.17294C8.74215 2.17294 8.4887 2.23939 8.26406 2.36586C8.03941 2.49234 7.85116 2.67458 7.71745 2.895V2.895Z" stroke="#DF0707" stroke-width="2" stroke-linecap="round" stroke-linejoin="round"/>
<path d="M9 6.75V9.75" stroke="#DF0707" stroke-width="2" stroke-linecap="round" stroke-linejoin="round"/>
<path d="M9 12.75H9.0075" stroke="#DF0707" stroke-width="2" stroke-linecap="round" stroke-linejoin="round"/>
</svg>
