<svg width="28" height="28" viewBox="0 0 28 28" fill="none" xmlns="http://www.w3.org/2000/svg">
<path d="M21.8282 8.41163C21.7197 8.30228 21.5907 8.21548 21.4485 8.15625C21.3064 8.09702 21.1539 8.06653 20.9999 8.06653C20.8458 8.06653 20.6934 8.09702 20.5512 8.15625C20.409 8.21548 20.28 8.30228 20.1715 8.41163L11.4799 17.115L7.82819 13.4516C7.71558 13.3428 7.58265 13.2573 7.43699 13.1999C7.29132 13.1425 7.13578 13.1144 6.97924 13.1171C6.82269 13.1198 6.66821 13.1533 6.52462 13.2157C6.38103 13.2781 6.25114 13.3682 6.14236 13.4808C6.03358 13.5934 5.94805 13.7263 5.89064 13.872C5.83324 14.0177 5.80509 14.1732 5.8078 14.3297C5.8105 14.4863 5.84402 14.6408 5.90643 14.7844C5.96884 14.928 6.05892 15.0578 6.17153 15.1666L10.6515 19.6466C10.76 19.756 10.889 19.8428 11.0312 19.902C11.1734 19.9612 11.3258 19.9917 11.4799 19.9917C11.6339 19.9917 11.7864 19.9612 11.9285 19.902C12.0707 19.8428 12.1997 19.756 12.3082 19.6466L21.8282 10.1266C21.9466 10.0174 22.0411 9.88478 22.1058 9.7372C22.1704 9.58962 22.2038 9.43025 22.2038 9.26913C22.2038 9.10801 22.1704 8.94863 22.1058 8.80105C22.0411 8.65347 21.9466 8.52088 21.8282 8.41163Z" fill="#0A4CF6"/>
</svg>
