<svg width="72" height="72" viewBox="0 0 72 72" fill="none" xmlns="http://www.w3.org/2000/svg">
<path d="M61.4106 16.89C62.5806 18.06 62.5806 19.92 61.4106 21.09L27.3906 55.11C27.116 55.3879 26.789 55.6086 26.4285 55.7592C26.0681 55.9098 25.6813 55.9873 25.2906 55.9873C24.8999 55.9873 24.5131 55.9098 24.1526 55.7592C23.7922 55.6086 23.4652 55.3879 23.1906 55.11L10.5906 42.51C10.3127 42.2354 10.092 41.9084 9.94141 41.5479C9.79082 41.1875 9.71327 40.8007 9.71327 40.41C9.71327 40.0193 9.79082 39.6325 9.94141 39.2721C10.092 38.9116 10.3127 38.5846 10.5906 38.31C10.8652 38.0321 11.1922 37.8114 11.5526 37.6608C11.9131 37.5102 12.2999 37.4327 12.6906 37.4327C13.0813 37.4327 13.4681 37.5102 13.8285 37.6608C14.189 37.8114 14.516 38.0321 14.7906 38.31L25.2906 48.81L57.2106 16.89C57.4852 16.6121 57.8122 16.3914 58.1726 16.2408C58.5331 16.0902 58.9199 16.0127 59.3106 16.0127C59.7013 16.0127 60.0881 16.0902 60.4485 16.2408C60.809 16.3914 61.136 16.6121 61.4106 16.89ZM55.0806 10.53L25.2906 40.32L16.9206 31.95C14.5806 29.61 10.7706 29.61 8.43059 31.95L4.23059 36.15C1.89059 38.49 1.89059 42.3 4.23059 44.64L21.0306 61.44C23.3706 63.78 27.1806 63.78 29.5206 61.44L67.7706 23.22C70.1106 20.88 70.1106 17.07 67.7706 14.73L63.5706 10.53C61.2006 8.18999 57.4206 8.18999 55.0806 10.53Z" fill="#0A4CF6"/>
</svg>
