<svg width="40" height="40" viewBox="0 0 40 40" fill="none" xmlns="http://www.w3.org/2000/svg">
<path d="M28 24H14C13.7348 24 13.4804 23.8946 13.2929 23.7071C13.1054 23.5196 13 23.2652 13 23C13 22.7348 13.1054 22.4804 13.2929 22.2929C13.4804 22.1054 13.7348 22 14 22H24.44C25.1087 22 25.7582 21.7767 26.2854 21.3654C26.8126 20.9542 27.1873 20.3786 27.35 19.73L29 13.24C29.0375 13.0924 29.0407 12.9382 29.0095 12.7892C28.9783 12.6401 28.9135 12.5002 28.82 12.38C28.7227 12.2567 28.5978 12.1581 28.4554 12.0921C28.3129 12.0261 28.1569 11.9945 28 12H13.76C13.5537 11.4165 13.1719 10.911 12.6671 10.5529C12.1622 10.1949 11.5589 10.0017 10.94 10H10C9.73478 10 9.48043 10.1054 9.29289 10.2929C9.10536 10.4804 9 10.7348 9 11C9 11.2652 9.10536 11.5196 9.29289 11.7071C9.48043 11.8946 9.73478 12 10 12H10.94C11.1684 11.9933 11.3923 12.0651 11.5742 12.2034C11.7562 12.3417 11.8852 12.5381 11.94 12.76L12 13.24L13.73 20C12.9344 20.0358 12.1855 20.3862 11.6482 20.9741C11.1109 21.5621 10.8292 22.3394 10.865 23.135C10.9008 23.9306 11.2512 24.6795 11.8391 25.2168C12.4271 25.7541 13.2044 26.0358 14 26H14.18C14.0155 26.4531 13.9627 26.9392 14.0259 27.4171C14.0892 27.895 14.2666 28.3506 14.5433 28.7454C14.82 29.1401 15.1877 29.4624 15.6154 29.6849C16.043 29.9074 16.5179 30.0235 17 30.0235C17.4821 30.0235 17.957 29.9074 18.3846 29.6849C18.8123 29.4624 19.18 29.1401 19.4567 28.7454C19.7334 28.3506 19.9108 27.895 19.9741 27.4171C20.0373 26.9392 19.9845 26.4531 19.82 26H22.18C22.0155 26.4531 21.9627 26.9392 22.0259 27.4171C22.0892 27.895 22.2666 28.3506 22.5433 28.7454C22.82 29.1401 23.1877 29.4624 23.6154 29.6849C24.043 29.9074 24.5179 30.0235 25 30.0235C25.4821 30.0235 25.957 29.9074 26.3846 29.6849C26.8123 29.4624 27.18 29.1401 27.4567 28.7454C27.7334 28.3506 27.9108 27.895 27.9741 27.4171C28.0373 26.9392 27.9845 26.4531 27.82 26H28C28.2652 26 28.5196 25.8946 28.7071 25.7071C28.8946 25.5196 29 25.2652 29 25C29 24.7348 28.8946 24.4804 28.7071 24.2929C28.5196 24.1054 28.2652 24 28 24ZM26.72 14L25.41 19.24C25.3552 19.4619 25.2262 19.6583 25.0442 19.7966C24.8623 19.9349 24.6384 20.0067 24.41 20H15.78L14.28 14H26.72ZM17 28C16.8022 28 16.6089 27.9414 16.4444 27.8315C16.28 27.7216 16.1518 27.5654 16.0761 27.3827C16.0004 27.2 15.9806 26.9989 16.0192 26.8049C16.0578 26.6109 16.153 26.4327 16.2929 26.2929C16.4327 26.153 16.6109 26.0578 16.8049 26.0192C16.9989 25.9806 17.2 26.0004 17.3827 26.0761C17.5654 26.1518 17.7216 26.28 17.8315 26.4444C17.9414 26.6089 18 26.8022 18 27C18 27.2652 17.8946 27.5196 17.7071 27.7071C17.5196 27.8946 17.2652 28 17 28ZM25 28C24.8022 28 24.6089 27.9414 24.4444 27.8315C24.28 27.7216 24.1518 27.5654 24.0761 27.3827C24.0004 27.2 23.9806 26.9989 24.0192 26.8049C24.0578 26.6109 24.153 26.4327 24.2929 26.2929C24.4327 26.153 24.6109 26.0578 24.8049 26.0192C24.9989 25.9806 25.2 26.0004 25.3827 26.0761C25.5654 26.1518 25.7216 26.28 25.8315 26.4444C25.9414 26.6089 26 26.8022 26 27C26 27.2652 25.8946 27.5196 25.7071 27.7071C25.5196 27.8946 25.2652 28 25 28Z" fill="#3E3E40"/>
</svg>
