<svg width="140" height="14" viewBox="0 0 140 14" fill="none" xmlns="http://www.w3.org/2000/svg">
<path d="M119.842 12.2476C119.688 12.2476 119.611 12.1895 119.611 12.0732C119.611 12.015 119.624 11.9424 119.649 11.8551L123.256 2.7113C123.358 2.45932 123.521 2.33334 123.743 2.33334H134.883C135.499 2.33334 135.952 2.47386 136.243 2.75491C136.542 3.02627 136.692 3.40424 136.692 3.8888C136.692 4.3443 136.615 4.73196 136.461 5.05177C136.316 5.37159 136.136 5.64295 135.922 5.86585C135.717 6.07906 135.499 6.25351 135.268 6.38919C135.045 6.51517 134.857 6.61693 134.703 6.69447C134.865 6.772 135.011 6.94644 135.139 7.2178C135.268 7.48916 135.332 7.82836 135.332 8.2354C135.332 8.67151 135.225 9.12701 135.011 9.60189C134.797 10.0768 134.489 10.5129 134.087 10.9102C133.693 11.2979 133.214 11.6177 132.65 11.8697C132.093 12.1216 131.465 12.2476 130.763 12.2476H119.842ZM127.375 7.69753C127.23 7.69753 127.157 7.63938 127.157 7.52308C127.157 7.46493 127.17 7.39709 127.195 7.31956L127.568 6.37465C127.67 6.12267 127.833 5.99669 128.055 5.99669H130.134C130.348 5.99669 130.553 5.95307 130.75 5.86585C130.947 5.77863 131.118 5.66718 131.264 5.5315C131.409 5.39582 131.524 5.25045 131.61 5.09538C131.704 4.93063 131.751 4.77557 131.751 4.6302C131.751 4.45575 131.687 4.31523 131.559 4.20862C131.43 4.09233 131.212 4.03418 130.904 4.03418H127.683L125.129 10.5323H128.132C128.586 10.5323 128.949 10.4499 129.223 10.2851C129.505 10.1204 129.719 9.92655 129.865 9.70365C130.019 9.48074 130.117 9.25784 130.16 9.03494C130.211 8.81204 130.237 8.63759 130.237 8.5116C130.237 7.96888 129.907 7.69753 129.249 7.69753H127.375Z" fill="#0A4CF6"/>
<path d="M107.593 12.2476C106.498 12.2476 105.702 12.049 105.206 11.6516C104.718 11.2446 104.474 10.6776 104.474 9.95078C104.474 9.63096 104.517 9.28207 104.603 8.90411C104.697 8.52614 104.829 8.1191 105 7.68299L106.964 2.7113C107.067 2.45932 107.229 2.33334 107.452 2.33334H112.238C112.401 2.33334 112.482 2.39633 112.482 2.52232C112.482 2.58047 112.465 2.64346 112.431 2.7113L110.48 7.68299C110.36 8.0028 110.266 8.29839 110.198 8.56975C110.129 8.84111 110.095 9.08824 110.095 9.31114C110.095 9.70849 110.202 10.0138 110.416 10.227C110.638 10.4305 110.985 10.5323 111.456 10.5323H113.663C114.399 10.5323 115.036 10.2803 115.575 9.77633C116.114 9.27238 116.563 8.5746 116.923 7.68299L118.873 2.7113C118.976 2.45932 119.138 2.33334 119.361 2.33334H120.914C121.068 2.33334 121.145 2.39633 121.145 2.52232C121.145 2.58047 121.132 2.64346 121.106 2.7113L119.143 7.68299C118.895 8.32262 118.574 8.91864 118.18 9.47105C117.787 10.0235 117.329 10.508 116.807 10.9248C116.285 11.3318 115.703 11.6565 115.062 11.8987C114.42 12.1313 113.727 12.2476 112.983 12.2476H107.593Z" fill="#0A4CF6"/>
<path d="M96.053 12.2476C95.8905 12.2476 95.8092 12.1895 95.8092 12.0732C95.8092 12.0054 95.8263 11.9327 95.8606 11.8551L97.4904 7.69753H93.6404L91.9977 11.8551C91.895 12.1168 91.7368 12.2476 91.5229 12.2476H87.1082C86.9457 12.2476 86.8644 12.1895 86.8644 12.0732C86.8644 12.0054 86.8815 11.9327 86.9157 11.8551L90.5219 2.7113C90.6245 2.45932 90.7871 2.33334 91.0095 2.33334H95.4242C95.5782 2.33334 95.6552 2.39633 95.6552 2.52232C95.6552 2.58047 95.6381 2.64346 95.6039 2.7113L94.3077 5.99669H98.1705L99.4539 2.7113C99.5565 2.45932 99.7234 2.33334 99.9544 2.33334H104.356C104.51 2.33334 104.587 2.39633 104.587 2.52232C104.587 2.58047 104.574 2.64346 104.549 2.7113L100.943 11.8551C100.84 12.1168 100.682 12.2476 100.468 12.2476H96.053Z" fill="#0A4CF6"/>
<path d="M70.3007 12.2476C70.1724 12.2476 70.1082 12.2137 70.1082 12.1459C70.1082 12.1265 70.1168 12.0974 70.1339 12.0587L73.2781 4.03418H69.5307C69.411 4.03418 69.3511 4.00026 69.3511 3.93242V3.87427L69.8772 2.52232C69.9371 2.39633 70.0441 2.33334 70.1981 2.33334H82.8004C82.9202 2.33334 82.9801 2.36726 82.9801 2.4351C82.9801 2.45448 82.9758 2.46902 82.9672 2.47871C82.9672 2.4884 82.9672 2.50294 82.9672 2.52232L82.4411 3.87427C82.3897 3.98087 82.2871 4.03418 82.1331 4.03418H78.3601L75.2159 12.0587C75.1646 12.1846 75.0619 12.2476 74.9079 12.2476H70.3007Z" fill="#0A4CF6"/>
<path d="M61.0562 12.2476C60.7054 12.2476 60.4701 12.1168 60.3504 11.8551L58.2072 7.24688C58.1815 7.19842 58.1601 7.15481 58.143 7.11604C58.1259 7.07728 58.1174 7.02882 58.1174 6.97067C58.1174 6.91252 58.143 6.8253 58.1944 6.709L58.3355 6.37465C58.4382 6.12267 58.6008 5.99669 58.8232 5.99669H60.5685C61.1332 5.99669 61.5567 5.86585 61.839 5.60418C62.1214 5.34251 62.2625 5.03724 62.2625 4.68835C62.2625 4.48483 62.1855 4.32492 62.0315 4.20862C61.8861 4.09233 61.6551 4.03418 61.3385 4.03418H58.4767L55.3967 11.8551C55.294 12.1168 55.1315 12.2476 54.909 12.2476H50.5072C50.3446 12.2476 50.2634 12.1895 50.2634 12.0732C50.2634 12.0054 50.2805 11.9327 50.3147 11.8551L53.9209 2.7113C54.0235 2.45932 54.1861 2.33334 54.4085 2.33334H65.6249C66.2238 2.33334 66.6943 2.49809 67.0365 2.8276C67.3788 3.14741 67.5499 3.56899 67.5499 4.09232C67.5499 4.5672 67.4472 5.00816 67.2419 5.4152C67.0451 5.82224 66.7713 6.18082 66.4205 6.49095C66.0783 6.80107 65.6719 7.05789 65.2014 7.26141C64.7394 7.46493 64.2474 7.60061 63.7255 7.66845L65.6634 11.7824C65.6805 11.8212 65.689 11.8648 65.689 11.9133C65.689 11.9908 65.6548 12.0683 65.5864 12.1459C65.5265 12.2137 65.4452 12.2476 65.3425 12.2476H61.0562Z" fill="#0A4CF6"/>
<path d="M37.3566 12.2476C36.9117 12.2476 36.5181 12.1701 36.1759 12.015C35.8337 11.8503 35.5471 11.6274 35.3161 11.3463C35.0851 11.0653 34.9097 10.7358 34.7899 10.3578C34.6701 9.97016 34.6102 9.55343 34.6102 9.10762C34.6102 8.53583 34.6958 7.97373 34.8669 7.42132C35.038 6.86891 35.2733 6.34073 35.5727 5.83678C35.8807 5.33282 36.2401 4.86764 36.6507 4.44122C37.07 4.01479 37.5234 3.64652 38.0111 3.3364C38.5073 3.02627 39.0292 2.78399 39.5767 2.60954C40.1243 2.4254 40.6847 2.33334 41.2579 2.33334H47.5462C47.9997 2.33334 48.3975 2.41087 48.7397 2.56593C49.0905 2.72099 49.3814 2.93905 49.6124 3.2201C49.8434 3.49146 50.0188 3.81612 50.1386 4.19408C50.2583 4.57205 50.3182 4.98393 50.3182 5.42974C50.3182 6.00153 50.2284 6.56848 50.0487 7.13058C49.8776 7.68299 49.6381 8.21117 49.3301 8.71512C49.0221 9.21907 48.6585 9.68911 48.2392 10.1252C47.82 10.5516 47.3623 10.9248 46.8661 11.2446C46.3698 11.5547 45.848 11.8018 45.3004 11.986C44.7528 12.1604 44.201 12.2476 43.6449 12.2476H37.3566ZM45.0822 6.30196C45.3646 5.62357 45.5057 5.11477 45.5057 4.77557C45.5057 4.49452 45.4159 4.30069 45.2362 4.19408C45.0651 4.08748 44.8085 4.03418 44.4662 4.03418H42.7209C42.4728 4.03418 42.2418 4.07294 42.0279 4.15047C41.8226 4.21831 41.6301 4.33946 41.4504 4.5139C41.2707 4.68835 41.0953 4.92094 40.9242 5.21168C40.7617 5.50242 40.5948 5.86585 40.4237 6.30196L39.8077 7.88651C39.4826 8.71028 39.3201 9.33053 39.3201 9.74726C39.3201 10.0283 39.3928 10.2318 39.5382 10.3578C39.6837 10.4741 39.8933 10.5323 40.1671 10.5323H41.9252C42.1905 10.5323 42.4343 10.4886 42.6567 10.4014C42.8792 10.3045 43.0931 10.1543 43.2984 9.95078C43.5037 9.74726 43.7005 9.4759 43.8887 9.1367C44.077 8.7975 44.2695 8.38077 44.4662 7.88651L45.0822 6.30196Z" fill="#0A4CF6"/>
<path d="M24.5746 8.7442C24.4206 8.7442 24.3436 8.6812 24.3436 8.55521C24.3436 8.52614 24.3436 8.49707 24.3436 8.46799C24.3521 8.42923 24.365 8.39046 24.3821 8.3517L24.7543 7.42132C24.8569 7.15965 25.0195 7.02882 25.2419 7.02882H26.8718C27.1798 7.02882 27.4664 6.98521 27.7316 6.89798C28.0054 6.80107 28.2406 6.66539 28.4374 6.49095C28.6342 6.3165 28.7882 6.10329 28.8994 5.85131C29.0106 5.58965 29.0663 5.2989 29.0663 4.97909C29.0663 4.66896 28.9721 4.43637 28.7839 4.28131C28.5957 4.11655 28.3519 4.03418 28.0524 4.03418H25.3061L22.2389 11.8551C22.1363 12.1168 21.9694 12.2476 21.7384 12.2476H17.3366C17.1826 12.2476 17.1056 12.1895 17.1056 12.0732C17.1056 12.015 17.1184 11.9424 17.1441 11.8551L20.7503 2.7113C20.8529 2.45932 21.0155 2.33334 21.2379 2.33334H32.1976C32.8307 2.33334 33.3269 2.51747 33.6863 2.88575C34.0541 3.24433 34.2381 3.75313 34.2381 4.41214C34.2381 5.07116 34.1012 5.66718 33.8274 6.2002C33.5536 6.73323 33.19 7.18873 32.7366 7.56669C32.2831 7.94466 31.7613 8.2354 31.1709 8.43892C30.5891 8.64244 29.986 8.7442 29.3614 8.7442H24.5746Z" fill="#0A4CF6"/>
<path d="M2.84666 12.2476C2.69266 12.2476 2.61566 12.1895 2.61566 12.0732C2.61566 12.015 2.62849 11.9424 2.65416 11.8551L3.02633 10.9248C3.129 10.6631 3.29583 10.5323 3.52683 10.5323H10.8547L6.0935 7.42132C5.7085 7.16934 5.44327 6.89798 5.29783 6.60724C5.16094 6.3165 5.0925 6.02576 5.0925 5.73502C5.0925 5.32798 5.18661 4.92094 5.37483 4.5139C5.56305 4.10686 5.82399 3.74343 6.15766 3.42362C6.49133 3.09411 6.88488 2.83244 7.33833 2.63862C7.79177 2.4351 8.28372 2.33334 8.81416 2.33334H18.2723C18.4349 2.33334 18.5162 2.39633 18.5162 2.52232C18.5162 2.58047 18.4991 2.64346 18.4648 2.7113L18.1055 3.64168C18.0028 3.90334 17.836 4.03418 17.605 4.03418H10.4953L15.2565 7.14512C15.6501 7.39709 15.9153 7.6733 16.0522 7.97373C16.1891 8.27416 16.2575 8.56491 16.2575 8.84596C16.2575 9.253 16.1634 9.66003 15.9752 10.0671C15.7955 10.4741 15.5388 10.8424 15.2052 11.1719C14.8715 11.4917 14.4779 11.7534 14.0245 11.9569C13.5711 12.1507 13.0748 12.2476 12.5358 12.2476H2.84666Z" fill="#0A4CF6"/>
</svg>
