<svg width="200" height="20" viewBox="0 0 200 20" fill="none" xmlns="http://www.w3.org/2000/svg">
<path d="M171.203 17.4966C170.983 17.4966 170.873 17.4136 170.873 17.2474C170.873 17.1643 170.891 17.0605 170.928 16.9359L176.079 3.87328C176.226 3.51332 176.458 3.33333 176.776 3.33333H192.689C193.569 3.33333 194.217 3.53408 194.633 3.93558C195.06 4.32324 195.274 4.86319 195.274 5.55543C195.274 6.20614 195.164 6.75994 194.944 7.21682C194.737 7.6737 194.48 8.06135 194.174 8.37978C193.881 8.68437 193.569 8.93358 193.239 9.12741C192.921 9.30739 192.653 9.45276 192.433 9.56352C192.665 9.67428 192.873 9.92349 193.056 10.3111C193.239 10.6988 193.331 11.1834 193.331 11.7649C193.331 12.3879 193.178 13.0386 192.873 13.717C192.567 14.3954 192.127 15.0184 191.553 15.586C190.99 16.1398 190.306 16.5967 189.499 16.9567C188.705 17.3166 187.806 17.4966 186.804 17.4966H171.203ZM181.964 10.9965C181.757 10.9965 181.653 10.9134 181.653 10.7473C181.653 10.6642 181.671 10.5673 181.708 10.4565L182.239 9.10664C182.386 8.74667 182.618 8.56669 182.936 8.56669H185.906C186.211 8.56669 186.505 8.50439 186.786 8.37978C187.067 8.25518 187.312 8.09596 187.519 7.90214C187.727 7.70831 187.892 7.50064 188.014 7.27912C188.149 7.04376 188.216 6.82224 188.216 6.61456C188.216 6.36536 188.124 6.16461 187.941 6.01231C187.758 5.84618 187.446 5.76311 187.006 5.76311H182.404L178.756 15.0461H183.046C183.694 15.0461 184.213 14.9284 184.604 14.693C185.008 14.4577 185.313 14.1808 185.521 13.8623C185.741 13.5439 185.882 13.2255 185.943 12.9071C186.016 12.5886 186.053 12.3394 186.053 12.1594C186.053 11.3841 185.582 10.9965 184.641 10.9965H181.964Z" fill="#0A4CF6"/>
<path d="M153.704 17.4966C152.139 17.4966 151.003 17.2128 150.294 16.6452C149.597 16.0637 149.249 15.2538 149.249 14.2154C149.249 13.7585 149.31 13.2601 149.432 12.7201C149.567 12.1802 149.756 11.5987 150.001 10.9757L152.806 3.87328C152.952 3.51332 153.184 3.33333 153.502 3.33333H160.341C160.573 3.33333 160.689 3.42333 160.689 3.60331C160.689 3.68638 160.664 3.77637 160.616 3.87328L157.829 10.9757C157.658 11.4326 157.523 11.8548 157.426 12.2425C157.328 12.6302 157.279 12.9832 157.279 13.3016C157.279 13.8693 157.432 14.3054 157.737 14.61C158.055 14.9007 158.55 15.0461 159.222 15.0461H162.376C163.427 15.0461 164.337 14.6861 165.107 13.9662C165.877 13.2463 166.519 12.2494 167.032 10.9757L169.819 3.87328C169.966 3.51332 170.198 3.33333 170.516 3.33333H172.734C172.954 3.33333 173.064 3.42333 173.064 3.60331C173.064 3.68638 173.046 3.77637 173.009 3.87328L170.204 10.9757C169.849 11.8895 169.391 12.7409 168.829 13.5301C168.267 14.3192 167.613 15.0115 166.867 15.6068C166.122 16.1883 165.291 16.6521 164.374 16.9982C163.457 17.3305 162.467 17.4966 161.404 17.4966H153.704Z" fill="#0A4CF6"/>
<path d="M137.219 17.4966C136.986 17.4966 136.87 17.4136 136.87 17.2474C136.87 17.1505 136.895 17.0467 136.944 16.9359L139.272 10.9965H133.772L131.425 16.9359C131.279 17.3097 131.053 17.4966 130.747 17.4966H124.44C124.208 17.4966 124.092 17.4136 124.092 17.2474C124.092 17.1505 124.116 17.0467 124.165 16.9359L129.317 3.87328C129.464 3.51332 129.696 3.33333 130.014 3.33333H136.32C136.54 3.33333 136.65 3.42333 136.65 3.60331C136.65 3.68638 136.626 3.77637 136.577 3.87328L134.725 8.56669H140.244L142.077 3.87328C142.224 3.51332 142.462 3.33333 142.792 3.33333H149.08C149.3 3.33333 149.41 3.42333 149.41 3.60331C149.41 3.68638 149.392 3.77637 149.355 3.87328L144.204 16.9359C144.057 17.3097 143.831 17.4966 143.525 17.4966H137.219Z" fill="#0A4CF6"/>
<path d="M100.43 17.4966C100.246 17.4966 100.155 17.4482 100.155 17.3513C100.155 17.3236 100.167 17.282 100.191 17.2266L104.683 5.76311H99.3297C99.1586 5.76311 99.073 5.71465 99.073 5.61774V5.53467L99.8247 3.60331C99.9102 3.42333 100.063 3.33333 100.283 3.33333H118.286C118.457 3.33333 118.543 3.38179 118.543 3.47871C118.543 3.50639 118.537 3.52716 118.525 3.54101C118.525 3.55485 118.525 3.57562 118.525 3.60331L117.773 5.53467C117.7 5.68696 117.553 5.76311 117.333 5.76311H111.943L107.451 17.2266C107.378 17.4066 107.231 17.4966 107.011 17.4966H100.43Z" fill="#0A4CF6"/>
<path d="M87.2231 17.4966C86.722 17.4966 86.3859 17.3097 86.2148 16.9359L83.1531 10.3527C83.1165 10.2835 83.0859 10.2211 83.0615 10.1658C83.037 10.1104 83.0248 10.0412 83.0248 9.9581C83.0248 9.87503 83.0615 9.75042 83.1348 9.58429L83.3365 9.10664C83.4831 8.74667 83.7154 8.56669 84.0331 8.56669H86.5265C87.3331 8.56669 87.9381 8.37978 88.3415 8.00597C88.7448 7.63216 88.9465 7.19605 88.9465 6.69763C88.9465 6.40689 88.8365 6.17845 88.6165 6.01231C88.4087 5.84618 88.0787 5.76311 87.6265 5.76311H83.5381L79.1381 16.9359C78.9915 17.3097 78.7593 17.4966 78.4415 17.4966H72.1531C71.9209 17.4966 71.8048 17.4136 71.8048 17.2474C71.8048 17.1505 71.8293 17.0467 71.8781 16.9359L77.0298 3.87328C77.1765 3.51332 77.4087 3.33333 77.7265 3.33333H93.7498C94.6054 3.33333 95.2776 3.5687 95.7665 4.03942C96.2554 4.4963 96.4998 5.09855 96.4998 5.84617C96.4998 6.52457 96.3531 7.15451 96.0598 7.736C95.7787 8.31748 95.3876 8.82974 94.8865 9.27278C94.3976 9.71581 93.817 10.0827 93.1448 10.3734C92.4848 10.6642 91.782 10.858 91.0365 10.9549L93.8048 16.8321C93.8293 16.8874 93.8415 16.9497 93.8415 17.019C93.8415 17.1297 93.7926 17.2405 93.6948 17.3513C93.6092 17.4482 93.4931 17.4966 93.3465 17.4966H87.2231Z" fill="#0A4CF6"/>
<path d="M53.3665 17.4966C52.731 17.4966 52.1687 17.3859 51.6798 17.1643C51.191 16.929 50.7815 16.6106 50.4515 16.209C50.1215 15.8075 49.871 15.3368 49.6998 14.7969C49.5287 14.2431 49.4432 13.6478 49.4432 13.0109C49.4432 12.194 49.5654 11.391 49.8098 10.6019C50.0543 9.81273 50.3904 9.05818 50.8182 8.33825C51.2582 7.61832 51.7715 6.95376 52.3582 6.34459C52.9571 5.73542 53.6048 5.20931 54.3015 4.76628C55.0104 4.32324 55.756 3.97712 56.5382 3.72791C57.3204 3.46486 58.121 3.33333 58.9398 3.33333H67.9232C68.571 3.33333 69.1393 3.44409 69.6282 3.66561C70.1293 3.88713 70.5448 4.19864 70.8748 4.60014C71.2048 4.98779 71.4554 5.4516 71.6265 5.99155C71.7976 6.5315 71.8832 7.1199 71.8832 7.75677C71.8832 8.57361 71.7548 9.38353 71.4982 10.1865C71.2537 10.9757 70.9115 11.7302 70.4715 12.4502C70.0315 13.1701 69.5121 13.8416 68.9132 14.4646C68.3143 15.0738 67.6604 15.6068 66.9515 16.0637C66.2426 16.5067 65.4971 16.8598 64.7148 17.1228C63.9326 17.372 63.1443 17.4966 62.3498 17.4966H53.3665ZM64.4032 9.0028C64.8065 8.03366 65.0082 7.30681 65.0082 6.82224C65.0082 6.42074 64.8798 6.14384 64.6232 5.99155C64.3787 5.83925 64.0121 5.76311 63.5232 5.76311H61.0298C60.6754 5.76311 60.3454 5.81849 60.0398 5.92924C59.7465 6.02616 59.4715 6.19922 59.2148 6.44843C58.9582 6.69763 58.7076 7.02991 58.4632 7.44526C58.231 7.8606 57.9926 8.37978 57.7482 9.0028L56.8682 11.2664C56.4037 12.4432 56.1715 13.3293 56.1715 13.9246C56.1715 14.3261 56.2754 14.6169 56.4832 14.7969C56.691 14.963 56.9904 15.0461 57.3815 15.0461H59.8932C60.2721 15.0461 60.6204 14.9838 60.9382 14.8592C61.256 14.7207 61.5615 14.5061 61.8548 14.2154C62.1482 13.9246 62.4293 13.537 62.6982 13.0524C62.9671 12.5679 63.2421 11.9725 63.5232 11.2664L64.4032 9.0028Z" fill="#0A4CF6"/>
<path d="M35.1066 12.4917C34.8866 12.4917 34.7766 12.4017 34.7766 12.2217C34.7766 12.1802 34.7766 12.1387 34.7766 12.0971C34.7888 12.0417 34.8071 11.9864 34.8316 11.931L35.3633 10.6019C35.5099 10.2281 35.7421 10.0412 36.0599 10.0412H38.3883C38.8283 10.0412 39.2377 9.97886 39.6166 9.85426C40.0077 9.71581 40.3438 9.52198 40.6249 9.27278C40.906 9.02357 41.126 8.71898 41.2849 8.35902C41.4438 7.98521 41.5233 7.56986 41.5233 7.11298C41.5233 6.66994 41.3888 6.33767 41.1199 6.11615C40.851 5.88079 40.5027 5.76311 40.0749 5.76311H36.1516L31.7699 16.9359C31.6233 17.3097 31.3849 17.4966 31.0549 17.4966H24.7666C24.5466 17.4966 24.4366 17.4136 24.4366 17.2474C24.4366 17.1643 24.4549 17.0605 24.4916 16.9359L29.6433 3.87328C29.7899 3.51332 30.0221 3.33333 30.3399 3.33333H45.9966C46.901 3.33333 47.6099 3.59639 48.1233 4.12249C48.6488 4.63475 48.9116 5.3616 48.9116 6.30306C48.9116 7.24451 48.716 8.09596 48.3249 8.85743C47.9338 9.6189 47.4144 10.2696 46.7666 10.8096C46.1188 11.3495 45.3733 11.7649 44.5299 12.0556C43.6988 12.3463 42.8371 12.4917 41.9449 12.4917H35.1066Z" fill="#0A4CF6"/>
<path d="M4.06669 17.4966C3.84669 17.4966 3.73669 17.4136 3.73669 17.2474C3.73669 17.1643 3.75503 17.0605 3.79169 16.9359L4.32336 15.6068C4.47003 15.233 4.70836 15.0461 5.03836 15.0461H15.5067L8.70503 10.6019C8.15503 10.2419 7.77614 9.85426 7.56836 9.43892C7.37281 9.02357 7.27503 8.60822 7.27503 8.19288C7.27503 7.61139 7.40947 7.02991 7.67836 6.44843C7.94725 5.86694 8.32003 5.34776 8.79669 4.89088C9.27336 4.42016 9.83558 4.04634 10.4834 3.76945C11.1311 3.47871 11.8339 3.33333 12.5917 3.33333H26.1034C26.3356 3.33333 26.4517 3.42333 26.4517 3.60331C26.4517 3.68638 26.4273 3.77637 26.3784 3.87328L25.865 5.20239C25.7184 5.5762 25.48 5.76311 25.15 5.76311H14.9934L21.795 10.2073C22.3573 10.5673 22.7361 10.9618 22.9317 11.391C23.1273 11.8202 23.225 12.2356 23.225 12.6371C23.225 13.2186 23.0906 13.8 22.8217 14.3815C22.565 14.963 22.1984 15.4891 21.7217 15.9598C21.245 16.4167 20.6828 16.7905 20.035 17.0813C19.3873 17.3582 18.6784 17.4966 17.9084 17.4966H4.06669Z" fill="#0A4CF6"/>
</svg>
